<svg width="251" height="251" viewBox="0 0 251 251" fill="none" xmlns="http://www.w3.org/2000/svg">
<rect width="251" height="251" fill="#2F2F2F"/>
<path d="M32.9203 113.04H84.7603V107.44H32.9203V113.04ZM50.1203 162H56.9203V116.16H32.9203V121.76H50.1203V162ZM60.4403 162H67.3203V121.76H84.7603V116.16H60.4403V162ZM117.634 162.72C126.914 162.72 134.354 161.76 139.954 159.52V129.92H117.794V135.52H133.714V155.28C128.514 156.72 123.314 157.12 118.194 157.12C103.554 157.12 94.3541 148.16 94.3541 134.96C94.3541 121.44 104.034 112.32 119.714 112.32C126.274 112.32 132.994 113.76 138.994 116.48V110.56C132.834 107.84 126.434 106.72 119.234 106.72C100.674 106.72 87.4741 118.16 87.4741 134.96C87.4741 149.68 97.8741 162.72 117.634 162.72ZM118.914 153.84C122.274 153.84 126.274 153.44 130.274 152.64V138.64H117.794V143.92H123.714V148C122.354 148.32 120.594 148.56 118.994 148.56C109.154 148.56 104.994 143.04 104.994 134.88C104.994 127.2 109.234 121.2 120.434 121.2C126.514 121.2 133.234 122.72 138.994 125.68V119.76C132.754 116.88 126.274 115.6 120.354 115.6C105.874 115.6 98.1141 123.36 98.1141 134.88C98.1141 146.96 106.194 153.84 118.914 153.84ZM150.2 162H157.08V107.44H150.2V162ZM160.52 162H167.32V107.44H160.52V162ZM177.603 162H184.483V113.04H215.363V107.44H177.603V162ZM188.003 133.76H214.403V128.16H194.803V121.76H215.363V116.16H188.003V133.76ZM188.003 162H194.803V142.48H214.403V136.96H188.003V162Z" fill="#08A5FE"/>
<path d="M32.3516 96H35.2812V91.957L36.7656 90.1602L40.6914 96H44.207L38.875 88.1875L44.1484 81.8594H40.6133L35.4766 88.1289H35.2812V81.8594H32.3516V96ZM45.6133 81.8594V96H48.4648V86.7031H48.582L52.2734 95.9414H54.2266L57.918 86.7422H58.0352V96H60.8867V81.8594H57.2539L53.3281 91.4492H53.1719L49.2461 81.8594H45.6133ZM72.0195 81.8594V90.8047C72.0293 92.4355 70.877 93.6074 69.1094 93.6172C67.3613 93.6074 66.209 92.4355 66.1992 90.8047V81.8594H63.2695V91.0391C63.2695 94.1348 65.5938 96.2051 69.1094 96.1953C72.6152 96.2051 74.9688 94.1348 74.9688 91.0391V81.8594H72.0195ZM91.4141 86.7812H94.3828C93.9922 83.5293 91.5312 81.6641 88.2695 81.6641C84.5391 81.6641 81.6875 84.3105 81.6875 88.9297C81.6875 93.5293 84.4902 96.1953 88.2695 96.1953C91.8633 96.1953 94.0605 93.8125 94.3828 91.1953L91.4141 91.1758C91.1309 92.709 89.9199 93.5879 88.3086 93.5977C86.1504 93.5879 84.6758 91.9766 84.6758 88.9297C84.6758 85.9512 86.1309 84.2715 88.3281 84.2617C89.9785 84.2715 91.1797 85.2188 91.4141 86.7812ZM104.109 85.9023H106.922C106.883 83.4023 104.822 81.6641 101.688 81.6641C98.5918 81.6641 96.3262 83.373 96.3359 85.9414C96.3359 88.0117 97.8008 89.2031 100.184 89.7891L101.727 90.1602C103.27 90.541 104.148 90.9902 104.148 91.957C104.148 93.0117 103.152 93.7344 101.609 93.7344C100.047 93.7344 98.9141 93.0117 98.8164 91.5859H95.9648C96.0527 94.623 98.2305 96.2051 101.648 96.1953C105.096 96.2051 107.107 94.5449 107.117 91.957C107.107 89.6035 105.301 88.373 102.879 87.8164L101.609 87.5039C100.389 87.2305 99.334 86.7715 99.3438 85.7461C99.3535 84.8086 100.184 84.125 101.668 84.125C103.104 84.125 103.992 84.7793 104.109 85.9023Z" fill="#BCBCBC"/>
</svg>
